<svg viewBox="0 0 200 200" xmlns="http://www.w3.org/2000/svg">
  <!-- Heart with Crown Logo -->
  <defs>
    <linearGradient id="heartGradient" x1="0%" y1="0%" x2="0%" y2="100%">
      <stop offset="0%" style="stop-color:#ff69b4;stop-opacity:1" />
      <stop offset="100%" style="stop-color:#ff1493;stop-opacity:1" />
    </linearGradient>
  </defs>
  
  <!-- Crown -->
  <path d="M 100 20 L 115 50 L 140 35 L 125 65 L 150 65 L 120 80 L 140 110 L 100 90 L 60 110 L 80 80 L 50 65 L 75 65 L 60 35 L 85 50 Z" fill="url(#heartGradient)" />
  
  <!-- Heart -->
  <path d="M 100 140 C 100 140, 70 110, 70 85 C 70 70, 80 60, 90 60 C 95 60, 100 63, 100 63 C 100 63, 105 60, 110 60 C 120 60, 130 70, 130 85 C 130 110, 100 140, 100 140 Z" fill="none" stroke="url(#heartGradient)" stroke-width="3" />
</svg>