<svg xmlns="http://www.w3.org/2000/svg" viewBox="0 0 512 512" width="512" height="512">
  <defs>
    <linearGradient id="luvGrad" x1="0%" y1="0%" x2="100%" y2="100%">
      <stop offset="0%" stop-color="#FF4F9A" />
      <stop offset="100%" stop-color="#A24FFF" />
    </linearGradient>
  </defs>
  
  <rect x="0" y="0" width="512" height="512" rx="112" fill="#222222" />

  <g transform="translate(128, 128)">
    <path d="M 10 100 L 33 20 L 80 70 L 128 10 L 176 70 L 223 20 L 246 100 Z" fill="#FFC857" opacity="0.95"/>
    
    <path d="M 20 120 L 20 230 L 90 230" fill="none" stroke="url(#luvGrad)" stroke-width="28" stroke-linecap="round" stroke-linejoin="round"/>
    <path d="M 110 230 L 110 120 L 168 180 L 226 120 L 226 230" fill="none" stroke="url(#luvGrad)" stroke-width="28" stroke-linecap="round" stroke-linejoin="round"/>
    
    <path d="M 168 230 C 168 230 110 150 110 120 C 110 90 140 90 168 120 C 196 90 226 90 226 120 C 226 150 168 230 168 230 Z" fill="none" stroke="#FF4F9A" stroke-width="12" stroke-linecap="round" opacity="0.8"/>
  </g>
</svg>
